<svg width="43" height="41" viewBox="0 0 43 41" fill="none" xmlns="http://www.w3.org/2000/svg">
<rect width="42.1015" height="40.7943" rx="8" fill="#212425"/>
<path fill-rule="evenodd" clip-rule="evenodd" d="M20.3945 15.9896V27H22.6445V15.9896H20.3945ZM22.6445 9.875V14.0443H20.3945V9.875H11.3945V8H31.6445V9.875H22.6445Z" fill="#43D87E"/>
<path d="M20.3945 15.9896H22.6445V14.0443H20.3945V15.9896Z" fill="#43D87E"/>
<path d="M10 23.1849V23.6537C10 25.5834 10.125 27.1498 10.375 28.3529C10.6328 29.556 11.0781 30.4779 11.7109 31.1185C12.3516 31.7592 13.2383 32.1967 14.3711 32.431C15.5039 32.6732 16.9492 32.7943 18.707 32.7943H23.4297C25.0391 32.7943 26.3945 32.724 27.4961 32.5834C28.6055 32.4428 29.4961 32.1576 30.168 31.7279C30.8477 31.2904 31.3398 30.642 31.6445 29.7826C31.9492 28.9232 32.1015 27.7748 32.1015 26.3373H29.8516C29.8516 27.4623 29.75 28.3373 29.5469 28.9623C29.3437 29.5795 29 30.0209 28.5156 30.2865C28.0391 30.5521 27.3867 30.7123 26.5586 30.767C25.7305 30.8217 24.6875 30.849 23.4297 30.849H18.707C17.5898 30.849 16.6484 30.8099 15.8828 30.7318C15.1172 30.6537 14.4922 30.4857 14.0078 30.2279C13.5312 29.9701 13.1641 29.5795 12.9062 29.056C12.6562 28.5326 12.4844 27.8334 12.3906 26.9584C12.2969 26.0834 12.25 24.9818 12.25 23.6537V23.1849C12.25 21.8099 12.2969 20.6771 12.3906 19.7865C12.4844 18.8959 12.6562 18.1927 12.9062 17.6771C13.1641 17.1615 13.5312 16.7865 14.0078 16.5521C14.4922 16.3099 15.1172 16.1576 15.8828 16.0951C16.6484 16.0248 17.5898 15.9896 18.707 15.9896H20.3945V14.0443H18.707C17.3008 14.0443 16.0977 14.1107 15.0977 14.2435C14.0977 14.3685 13.2656 14.6107 12.6016 14.9701C11.9453 15.3295 11.4258 15.849 11.043 16.5287C10.6602 17.2084 10.3906 18.0912 10.2344 19.1771C10.0781 20.2552 10 21.5912 10 23.1849Z" fill="#FED6D4"/>
<path d="M27.4961 14.2787C26.3945 14.1224 25.0391 14.0443 23.4297 14.0443H22.6445V15.9896H23.4297C24.6875 15.9896 25.7305 16.0248 26.5586 16.0951C27.3867 16.1576 28.0391 16.3295 28.5156 16.6107C29 16.892 29.3437 17.349 29.5469 17.9818C29.75 18.6068 29.8516 19.4857 29.8516 20.6185H32.1015C32.1015 19.181 31.9492 18.0287 31.6445 17.1615C31.3398 16.2865 30.8477 15.6263 30.168 15.181C29.4961 14.7279 28.6055 14.4271 27.4961 14.2787Z" fill="#FED6D4"/>
</svg>
