<svg width="208" height="40" viewBox="0 0 208 40" fill="none" xmlns="http://www.w3.org/2000/svg">
<path d="M19.1016 29V12.875H10.1016V11H30.3516V12.875H21.3516V29H19.1016Z" fill="white"/>
<path d="M48.4102 24.9922C48.4102 26 48.2578 26.793 47.9531 27.3711C47.6562 27.9492 47.1992 28.3711 46.582 28.6367C45.9648 28.9023 45.1758 29.0703 44.2148 29.1406C43.2617 29.2188 42.125 29.2578 40.8047 29.2578C39.2969 29.2578 38.0156 29.1797 36.9609 29.0234C35.9141 28.875 35.0664 28.5664 34.418 28.0977C33.7773 27.6211 33.3086 26.9102 33.0117 25.9648C32.7227 25.0195 32.5781 23.7578 32.5781 22.1797C32.5781 20.6484 32.7188 19.4219 33 18.5C33.2891 17.5781 33.7539 16.8828 34.3945 16.4141C35.0352 15.9453 35.875 15.6328 36.9141 15.4766C37.9609 15.3203 39.2383 15.2422 40.7461 15.2422C42.4727 15.2422 43.9023 15.3633 45.0352 15.6055C46.168 15.8477 47.0117 16.3086 47.5664 16.9883C48.1289 17.668 48.4102 18.6641 48.4102 19.9766V22.8711H34.8398C34.8477 23.8711 34.918 24.6719 35.0508 25.2734C35.1836 25.875 35.4492 26.3281 35.8477 26.6328C36.2461 26.9375 36.8398 27.1406 37.6289 27.2422C38.4258 27.3359 39.4844 27.3828 40.8047 27.3828C41.9922 27.3828 42.9492 27.3594 43.6758 27.3125C44.4102 27.2656 44.9648 27.1641 45.3398 27.0078C45.7227 26.8438 45.9805 26.6016 46.1133 26.2812C46.2461 25.9609 46.3125 25.5312 46.3125 24.9922H48.4102ZM40.7461 17.1172C39.4727 17.1172 38.4453 17.1641 37.6641 17.2578C36.8906 17.3516 36.3008 17.5352 35.8945 17.8086C35.4883 18.0742 35.2109 18.4727 35.0625 19.0039C34.9219 19.5352 34.8477 20.2344 34.8398 21.1016H46.2539V19.9766C46.2539 19.4141 46.1875 18.9492 46.0547 18.582C45.9297 18.207 45.6797 17.9141 45.3047 17.7031C44.9297 17.4844 44.375 17.332 43.6406 17.2461C42.9141 17.1602 41.9492 17.1172 40.7461 17.1172Z" fill="white"/>
<path d="M59.2148 29.2578C57.707 29.2578 56.4258 29.1797 55.3711 29.0234C54.3164 28.875 53.4648 28.5664 52.8164 28.0977C52.168 27.6211 51.6953 26.9102 51.3984 25.9648C51.1016 25.0195 50.9531 23.7578 50.9531 22.1797C50.9531 20.6484 51.1016 19.4219 51.3984 18.5C51.6953 17.5781 52.168 16.8828 52.8164 16.4141C53.4648 15.9453 54.3164 15.6328 55.3711 15.4766C56.4258 15.3203 57.707 15.2422 59.2148 15.2422C61.0195 15.2422 62.5039 15.3477 63.668 15.5586C64.8398 15.7617 65.707 16.1836 66.2695 16.8242C66.832 17.4648 67.1133 18.4414 67.1133 19.7539H64.957C64.957 18.9961 64.8008 18.4297 64.4883 18.0547C64.1758 17.6797 63.6055 17.4297 62.7773 17.3047C61.9492 17.1797 60.7617 17.1172 59.2148 17.1172C57.8242 17.1172 56.7227 17.1758 55.9102 17.293C55.0977 17.4102 54.5 17.6406 54.1172 17.9844C53.7344 18.3203 53.4844 18.8242 53.3672 19.4961C53.2578 20.168 53.2031 21.0625 53.2031 22.1797C53.2031 23.3359 53.2578 24.2617 53.3672 24.957C53.4844 25.6523 53.7344 26.1758 54.1172 26.5273C54.5 26.8711 55.0977 27.1016 55.9102 27.2188C56.7227 27.3281 57.8242 27.3828 59.2148 27.3828C60.3945 27.3828 61.3594 27.3516 62.1094 27.2891C62.8594 27.2188 63.4414 27.0859 63.8555 26.8906C64.2695 26.6875 64.5547 26.3984 64.7109 26.0234C64.875 25.6406 64.957 25.1328 64.957 24.5H67.1133C67.1133 25.5469 66.957 26.3867 66.6445 27.0195C66.332 27.6523 65.8555 28.1289 65.2148 28.4492C64.5742 28.7695 63.7539 28.9844 62.7539 29.0938C61.7617 29.2031 60.582 29.2578 59.2148 29.2578Z" fill="white"/>
<path d="M69.7969 29V11H72.0469V17.293C72.3828 16.8398 72.7969 16.4609 73.2891 16.1562C73.7891 15.8516 74.4531 15.625 75.2812 15.4766C76.1172 15.3203 77.2109 15.2422 78.5625 15.2422C80.3281 15.2422 81.7188 15.4141 82.7344 15.7578C83.7578 16.1016 84.4844 16.7148 84.9141 17.5977C85.3438 18.4805 85.5586 19.7305 85.5586 21.3477V29H83.2969V21.3477C83.2969 20.4258 83.2188 19.6836 83.0625 19.1211C82.9062 18.5586 82.6367 18.1328 82.2539 17.8438C81.8789 17.5547 81.3594 17.3633 80.6953 17.2695C80.0312 17.168 79.1875 17.1172 78.1641 17.1172C76.6016 17.1172 75.375 17.2461 74.4844 17.5039C73.5938 17.7617 72.9648 18.168 72.5977 18.7227C72.2305 19.2695 72.0469 19.9844 72.0469 20.8672V29H69.7969Z" fill="white"/>
<path d="M88.5938 29V15.5H90.8438V17.293C91.1797 16.8398 91.5938 16.4609 92.0859 16.1562C92.5859 15.8516 93.25 15.625 94.0781 15.4766C94.9141 15.3203 96.0078 15.2422 97.3594 15.2422C99.125 15.2422 100.516 15.4141 101.531 15.7578C102.555 16.1016 103.281 16.7148 103.711 17.5977C104.141 18.4805 104.355 19.7305 104.355 21.3477V29H102.094V21.3477C102.094 20.4258 102.016 19.6836 101.859 19.1211C101.703 18.5586 101.434 18.1328 101.051 17.8438C100.676 17.5547 100.156 17.3633 99.4922 17.2695C98.8281 17.168 97.9844 17.1172 96.9609 17.1172C95.3984 17.1172 94.1719 17.2461 93.2812 17.5039C92.3906 17.7617 91.7617 18.168 91.3945 18.7227C91.0273 19.2695 90.8438 19.9844 90.8438 20.8672V29H88.5938Z" fill="white"/>
<path d="M115.207 29.2578C113.699 29.2578 112.418 29.1797 111.363 29.0234C110.309 28.875 109.457 28.5664 108.809 28.0977C108.16 27.6211 107.688 26.9102 107.391 25.9648C107.094 25.0195 106.945 23.7578 106.945 22.1797C106.945 20.6484 107.094 19.4219 107.391 18.5C107.688 17.5781 108.16 16.8828 108.809 16.4141C109.457 15.9453 110.309 15.6328 111.363 15.4766C112.418 15.3203 113.699 15.2422 115.207 15.2422C116.723 15.2422 118.004 15.3203 119.051 15.4766C120.105 15.6328 120.957 15.9453 121.605 16.4141C122.254 16.8828 122.727 17.5781 123.023 18.5C123.32 19.4219 123.469 20.6484 123.469 22.1797C123.469 23.7578 123.32 25.0195 123.023 25.9648C122.727 26.9102 122.254 27.6211 121.605 28.0977C120.957 28.5664 120.105 28.875 119.051 29.0234C118.004 29.1797 116.723 29.2578 115.207 29.2578ZM121.219 22.1797C121.219 21.0625 121.16 20.168 121.043 19.4961C120.934 18.8242 120.688 18.3203 120.305 17.9844C119.922 17.6406 119.324 17.4102 118.512 17.293C117.707 17.1758 116.605 17.1172 115.207 17.1172C113.816 17.1172 112.715 17.1758 111.902 17.293C111.09 17.4102 110.492 17.6406 110.109 17.9844C109.727 18.3203 109.477 18.8242 109.359 19.4961C109.25 20.168 109.195 21.0625 109.195 22.1797C109.195 23.3359 109.25 24.2617 109.359 24.957C109.477 25.6523 109.727 26.1758 110.109 26.5273C110.492 26.8711 111.09 27.1016 111.902 27.2188C112.715 27.3281 113.816 27.3828 115.207 27.3828C116.605 27.3828 117.707 27.3281 118.512 27.2188C119.324 27.1016 119.922 26.8711 120.305 26.5273C120.688 26.1758 120.934 25.6523 121.043 24.957C121.16 24.2617 121.219 23.3359 121.219 22.1797Z" fill="white"/>
<path d="M126.094 20.2344V19.7656C126.094 18.1719 126.172 16.8359 126.328 15.7578C126.484 14.6719 126.754 13.7891 127.137 13.1094C127.52 12.4297 128.039 11.9102 128.695 11.5508C129.359 11.1914 130.191 10.9492 131.191 10.8242C132.191 10.6914 133.395 10.625 134.801 10.625H139.523C141.133 10.625 142.488 10.7031 143.59 10.8594C144.699 11.0078 145.59 11.3086 146.262 11.7617C146.941 12.207 147.434 12.8672 147.738 13.7422C148.043 14.6094 148.195 15.7617 148.195 17.1992H145.945C145.945 16.0664 145.844 15.1875 145.641 14.5625C145.438 13.9297 145.094 13.4727 144.609 13.1914C144.133 12.9102 143.48 12.7383 142.652 12.6758C141.824 12.6055 140.781 12.5703 139.523 12.5703H134.801C133.684 12.5703 132.742 12.6055 131.977 12.6758C131.211 12.7383 130.586 12.8906 130.102 13.1328C129.625 13.3672 129.258 13.7422 129 14.2578C128.75 14.7734 128.578 15.4766 128.484 16.3672C128.391 17.2578 128.344 18.3906 128.344 19.7656V20.2344C128.344 21.5625 128.391 22.6641 128.484 23.5391C128.578 24.4141 128.75 25.1133 129 25.6367C129.258 26.1602 129.625 26.5508 130.102 26.8086C130.586 27.0664 131.211 27.2344 131.977 27.3125C132.742 27.3906 133.684 27.4297 134.801 27.4297H139.523C140.781 27.4297 141.824 27.4023 142.652 27.3477C143.48 27.293 144.133 27.1328 144.609 26.8672C145.094 26.6016 145.438 26.1602 145.641 25.543C145.844 24.918 145.945 24.043 145.945 22.918H148.195C148.195 24.3555 148.043 25.5039 147.738 26.3633C147.434 27.2227 146.941 27.8711 146.262 28.3086C145.59 28.7383 144.699 29.0234 143.59 29.1641C142.488 29.3047 141.133 29.375 139.523 29.375H134.801C133.043 29.375 131.598 29.2539 130.465 29.0117C129.332 28.7773 128.445 28.3398 127.805 27.6992C127.172 27.0586 126.727 26.1367 126.469 24.9336C126.219 23.7305 126.094 22.1641 126.094 20.2344Z" fill="white"/>
<path d="M151.289 29V11H153.539V17.293C153.875 16.8398 154.289 16.4609 154.781 16.1562C155.281 15.8516 155.945 15.625 156.773 15.4766C157.609 15.3203 158.703 15.2422 160.055 15.2422C161.82 15.2422 163.211 15.4141 164.227 15.7578C165.25 16.1016 165.977 16.7148 166.406 17.5977C166.836 18.4805 167.051 19.7305 167.051 21.3477V29H164.789V21.3477C164.789 20.4258 164.711 19.6836 164.555 19.1211C164.398 18.5586 164.129 18.1328 163.746 17.8438C163.371 17.5547 162.852 17.3633 162.188 17.2695C161.523 17.168 160.68 17.1172 159.656 17.1172C158.094 17.1172 156.867 17.2461 155.977 17.5039C155.086 17.7617 154.457 18.168 154.09 18.7227C153.723 19.2695 153.539 19.9844 153.539 20.8672V29H151.289Z" fill="white"/>
<path d="M170.039 29V16.25H172.289V29H170.039ZM170.039 13.25V11H172.289V13.25H170.039Z" fill="white"/>
<path d="M176.039 29V11H178.289V29H176.039Z" fill="white"/>
<path d="M197.496 24.9922C197.496 26 197.344 26.793 197.039 27.3711C196.742 27.9492 196.285 28.3711 195.668 28.6367C195.051 28.9023 194.262 29.0703 193.301 29.1406C192.348 29.2188 191.211 29.2578 189.891 29.2578C188.383 29.2578 187.102 29.1797 186.047 29.0234C185 28.875 184.152 28.5664 183.504 28.0977C182.863 27.6211 182.395 26.9102 182.098 25.9648C181.809 25.0195 181.664 23.7578 181.664 22.1797C181.664 20.6484 181.805 19.4219 182.086 18.5C182.375 17.5781 182.84 16.8828 183.48 16.4141C184.121 15.9453 184.961 15.6328 186 15.4766C187.047 15.3203 188.324 15.2422 189.832 15.2422C191.559 15.2422 192.988 15.3633 194.121 15.6055C195.254 15.8477 196.098 16.3086 196.652 16.9883C197.215 17.668 197.496 18.6641 197.496 19.9766V22.8711H183.926C183.934 23.8711 184.004 24.6719 184.137 25.2734C184.27 25.875 184.535 26.3281 184.934 26.6328C185.332 26.9375 185.926 27.1406 186.715 27.2422C187.512 27.3359 188.57 27.3828 189.891 27.3828C191.078 27.3828 192.035 27.3594 192.762 27.3125C193.496 27.2656 194.051 27.1641 194.426 27.0078C194.809 26.8438 195.066 26.6016 195.199 26.2812C195.332 25.9609 195.398 25.5312 195.398 24.9922H197.496ZM189.832 17.1172C188.559 17.1172 187.531 17.1641 186.75 17.2578C185.977 17.3516 185.387 17.5352 184.98 17.8086C184.574 18.0742 184.297 18.4727 184.148 19.0039C184.008 19.5352 183.934 20.2344 183.926 21.1016H195.34V19.9766C195.34 19.4141 195.273 18.9492 195.141 18.582C195.016 18.207 194.766 17.9141 194.391 17.7031C194.016 17.4844 193.461 17.332 192.727 17.2461C192 17.1602 191.035 17.1172 189.832 17.1172Z" fill="white"/>
</svg>
