<svg width="208" height="39" viewBox="0 0 208 39" fill="none" xmlns="http://www.w3.org/2000/svg">
<path d="M19 28.375V12.25H10V10.375H30.25V12.25H21.25V28.375H19Z" fill="#43D87E"/>
<path d="M48.3086 24.3672C48.3086 25.375 48.1562 26.168 47.8516 26.7461C47.5547 27.3242 47.0977 27.7461 46.4805 28.0117C45.8633 28.2773 45.0742 28.4453 44.1133 28.5156C43.1602 28.5938 42.0234 28.6328 40.7031 28.6328C39.1953 28.6328 37.9141 28.5547 36.8594 28.3984C35.8125 28.25 34.9648 27.9414 34.3164 27.4727C33.6758 26.9961 33.207 26.2852 32.9102 25.3398C32.6211 24.3945 32.4766 23.1328 32.4766 21.5547C32.4766 20.0234 32.6172 18.7969 32.8984 17.875C33.1875 16.9531 33.6523 16.2578 34.293 15.7891C34.9336 15.3203 35.7734 15.0078 36.8125 14.8516C37.8594 14.6953 39.1367 14.6172 40.6445 14.6172C42.3711 14.6172 43.8008 14.7383 44.9336 14.9805C46.0664 15.2227 46.9102 15.6836 47.4648 16.3633C48.0273 17.043 48.3086 18.0391 48.3086 19.3516V22.2461H34.7383C34.7461 23.2461 34.8164 24.0469 34.9492 24.6484C35.082 25.25 35.3477 25.7031 35.7461 26.0078C36.1445 26.3125 36.7383 26.5156 37.5273 26.6172C38.3242 26.7109 39.3828 26.7578 40.7031 26.7578C41.8906 26.7578 42.8477 26.7344 43.5742 26.6875C44.3086 26.6406 44.8633 26.5391 45.2383 26.3828C45.6211 26.2188 45.8789 25.9766 46.0117 25.6562C46.1445 25.3359 46.2109 24.9062 46.2109 24.3672H48.3086ZM40.6445 16.4922C39.3711 16.4922 38.3438 16.5391 37.5625 16.6328C36.7891 16.7266 36.1992 16.9102 35.793 17.1836C35.3867 17.4492 35.1094 17.8477 34.9609 18.3789C34.8203 18.9102 34.7461 19.6094 34.7383 20.4766H46.1523V19.3516C46.1523 18.7891 46.0859 18.3242 45.9531 17.957C45.8281 17.582 45.5781 17.2891 45.2031 17.0781C44.8281 16.8594 44.2734 16.707 43.5391 16.6211C42.8125 16.5352 41.8477 16.4922 40.6445 16.4922Z" fill="#43D87E"/>
<path d="M59.1133 28.6328C57.6055 28.6328 56.3242 28.5547 55.2695 28.3984C54.2148 28.25 53.3633 27.9414 52.7148 27.4727C52.0664 26.9961 51.5938 26.2852 51.2969 25.3398C51 24.3945 50.8516 23.1328 50.8516 21.5547C50.8516 20.0234 51 18.7969 51.2969 17.875C51.5938 16.9531 52.0664 16.2578 52.7148 15.7891C53.3633 15.3203 54.2148 15.0078 55.2695 14.8516C56.3242 14.6953 57.6055 14.6172 59.1133 14.6172C60.918 14.6172 62.4023 14.7227 63.5664 14.9336C64.7383 15.1367 65.6055 15.5586 66.168 16.1992C66.7305 16.8398 67.0117 17.8164 67.0117 19.1289H64.8555C64.8555 18.3711 64.6992 17.8047 64.3867 17.4297C64.0742 17.0547 63.5039 16.8047 62.6758 16.6797C61.8477 16.5547 60.6602 16.4922 59.1133 16.4922C57.7227 16.4922 56.6211 16.5508 55.8086 16.668C54.9961 16.7852 54.3984 17.0156 54.0156 17.3594C53.6328 17.6953 53.3828 18.1992 53.2656 18.8711C53.1562 19.543 53.1016 20.4375 53.1016 21.5547C53.1016 22.7109 53.1562 23.6367 53.2656 24.332C53.3828 25.0273 53.6328 25.5508 54.0156 25.9023C54.3984 26.2461 54.9961 26.4766 55.8086 26.5938C56.6211 26.7031 57.7227 26.7578 59.1133 26.7578C60.293 26.7578 61.2578 26.7266 62.0078 26.6641C62.7578 26.5938 63.3398 26.4609 63.7539 26.2656C64.168 26.0625 64.4531 25.7734 64.6094 25.3984C64.7734 25.0156 64.8555 24.5078 64.8555 23.875H67.0117C67.0117 24.9219 66.8555 25.7617 66.543 26.3945C66.2305 27.0273 65.7539 27.5039 65.1133 27.8242C64.4727 28.1445 63.6523 28.3594 62.6523 28.4688C61.6602 28.5781 60.4805 28.6328 59.1133 28.6328Z" fill="#43D87E"/>
<path d="M69.6953 28.375V10.375H71.9453V16.668C72.2812 16.2148 72.6953 15.8359 73.1875 15.5312C73.6875 15.2266 74.3516 15 75.1797 14.8516C76.0156 14.6953 77.1094 14.6172 78.4609 14.6172C80.2266 14.6172 81.6172 14.7891 82.6328 15.1328C83.6562 15.4766 84.3828 16.0898 84.8125 16.9727C85.2422 17.8555 85.457 19.1055 85.457 20.7227V28.375H83.1953V20.7227C83.1953 19.8008 83.1172 19.0586 82.9609 18.4961C82.8047 17.9336 82.5352 17.5078 82.1523 17.2188C81.7773 16.9297 81.2578 16.7383 80.5938 16.6445C79.9297 16.543 79.0859 16.4922 78.0625 16.4922C76.5 16.4922 75.2734 16.6211 74.3828 16.8789C73.4922 17.1367 72.8633 17.543 72.4961 18.0977C72.1289 18.6445 71.9453 19.3594 71.9453 20.2422V28.375H69.6953Z" fill="#43D87E"/>
<path d="M88.4922 28.375V14.875H90.7422V16.668C91.0781 16.2148 91.4922 15.8359 91.9844 15.5312C92.4844 15.2266 93.1484 15 93.9766 14.8516C94.8125 14.6953 95.9062 14.6172 97.2578 14.6172C99.0234 14.6172 100.414 14.7891 101.43 15.1328C102.453 15.4766 103.18 16.0898 103.609 16.9727C104.039 17.8555 104.254 19.1055 104.254 20.7227V28.375H101.992V20.7227C101.992 19.8008 101.914 19.0586 101.758 18.4961C101.602 17.9336 101.332 17.5078 100.949 17.2188C100.574 16.9297 100.055 16.7383 99.3906 16.6445C98.7266 16.543 97.8828 16.4922 96.8594 16.4922C95.2969 16.4922 94.0703 16.6211 93.1797 16.8789C92.2891 17.1367 91.6602 17.543 91.293 18.0977C90.9258 18.6445 90.7422 19.3594 90.7422 20.2422V28.375H88.4922Z" fill="#43D87E"/>
<path d="M115.105 28.6328C113.598 28.6328 112.316 28.5547 111.262 28.3984C110.207 28.25 109.355 27.9414 108.707 27.4727C108.059 26.9961 107.586 26.2852 107.289 25.3398C106.992 24.3945 106.844 23.1328 106.844 21.5547C106.844 20.0234 106.992 18.7969 107.289 17.875C107.586 16.9531 108.059 16.2578 108.707 15.7891C109.355 15.3203 110.207 15.0078 111.262 14.8516C112.316 14.6953 113.598 14.6172 115.105 14.6172C116.621 14.6172 117.902 14.6953 118.949 14.8516C120.004 15.0078 120.855 15.3203 121.504 15.7891C122.152 16.2578 122.625 16.9531 122.922 17.875C123.219 18.7969 123.367 20.0234 123.367 21.5547C123.367 23.1328 123.219 24.3945 122.922 25.3398C122.625 26.2852 122.152 26.9961 121.504 27.4727C120.855 27.9414 120.004 28.25 118.949 28.3984C117.902 28.5547 116.621 28.6328 115.105 28.6328ZM121.117 21.5547C121.117 20.4375 121.059 19.543 120.941 18.8711C120.832 18.1992 120.586 17.6953 120.203 17.3594C119.82 17.0156 119.223 16.7852 118.41 16.668C117.605 16.5508 116.504 16.4922 115.105 16.4922C113.715 16.4922 112.613 16.5508 111.801 16.668C110.988 16.7852 110.391 17.0156 110.008 17.3594C109.625 17.6953 109.375 18.1992 109.258 18.8711C109.148 19.543 109.094 20.4375 109.094 21.5547C109.094 22.7109 109.148 23.6367 109.258 24.332C109.375 25.0273 109.625 25.5508 110.008 25.9023C110.391 26.2461 110.988 26.4766 111.801 26.5938C112.613 26.7031 113.715 26.7578 115.105 26.7578C116.504 26.7578 117.605 26.7031 118.41 26.5938C119.223 26.4766 119.82 26.2461 120.203 25.9023C120.586 25.5508 120.832 25.0273 120.941 24.332C121.059 23.6367 121.117 22.7109 121.117 21.5547Z" fill="#43D87E"/>
<path d="M125.992 19.6094V19.1406C125.992 17.5469 126.07 16.2109 126.227 15.1328C126.383 14.0469 126.652 13.1641 127.035 12.4844C127.418 11.8047 127.938 11.2852 128.594 10.9258C129.258 10.5664 130.09 10.3242 131.09 10.1992C132.09 10.0664 133.293 10 134.699 10H139.422C141.031 10 142.387 10.0781 143.488 10.2344C144.598 10.3828 145.488 10.6836 146.16 11.1367C146.84 11.582 147.332 12.2422 147.637 13.1172C147.941 13.9844 148.094 15.1367 148.094 16.5742H145.844C145.844 15.4414 145.742 14.5625 145.539 13.9375C145.336 13.3047 144.992 12.8477 144.508 12.5664C144.031 12.2852 143.379 12.1133 142.551 12.0508C141.723 11.9805 140.68 11.9453 139.422 11.9453H134.699C133.582 11.9453 132.641 11.9805 131.875 12.0508C131.109 12.1133 130.484 12.2656 130 12.5078C129.523 12.7422 129.156 13.1172 128.898 13.6328C128.648 14.1484 128.477 14.8516 128.383 15.7422C128.289 16.6328 128.242 17.7656 128.242 19.1406V19.6094C128.242 20.9375 128.289 22.0391 128.383 22.9141C128.477 23.7891 128.648 24.4883 128.898 25.0117C129.156 25.5352 129.523 25.9258 130 26.1836C130.484 26.4414 131.109 26.6094 131.875 26.6875C132.641 26.7656 133.582 26.8047 134.699 26.8047H139.422C140.68 26.8047 141.723 26.7773 142.551 26.7227C143.379 26.668 144.031 26.5078 144.508 26.2422C144.992 25.9766 145.336 25.5352 145.539 24.918C145.742 24.293 145.844 23.418 145.844 22.293H148.094C148.094 23.7305 147.941 24.8789 147.637 25.7383C147.332 26.5977 146.84 27.2461 146.16 27.6836C145.488 28.1133 144.598 28.3984 143.488 28.5391C142.387 28.6797 141.031 28.75 139.422 28.75H134.699C132.941 28.75 131.496 28.6289 130.363 28.3867C129.23 28.1523 128.344 27.7148 127.703 27.0742C127.07 26.4336 126.625 25.5117 126.367 24.3086C126.117 23.1055 125.992 21.5391 125.992 19.6094Z" fill="white"/>
<path d="M151.188 28.375V10.375H153.438V16.668C153.773 16.2148 154.188 15.8359 154.68 15.5312C155.18 15.2266 155.844 15 156.672 14.8516C157.508 14.6953 158.602 14.6172 159.953 14.6172C161.719 14.6172 163.109 14.7891 164.125 15.1328C165.148 15.4766 165.875 16.0898 166.305 16.9727C166.734 17.8555 166.949 19.1055 166.949 20.7227V28.375H164.688V20.7227C164.688 19.8008 164.609 19.0586 164.453 18.4961C164.297 17.9336 164.027 17.5078 163.645 17.2188C163.27 16.9297 162.75 16.7383 162.086 16.6445C161.422 16.543 160.578 16.4922 159.555 16.4922C157.992 16.4922 156.766 16.6211 155.875 16.8789C154.984 17.1367 154.355 17.543 153.988 18.0977C153.621 18.6445 153.438 19.3594 153.438 20.2422V28.375H151.188Z" fill="white"/>
<path d="M169.938 28.375V15.625H172.188V28.375H169.938ZM169.938 12.625V10.375H172.188V12.625H169.938Z" fill="white"/>
<path d="M175.938 28.375V10.375H178.188V28.375H175.938Z" fill="white"/>
<path d="M197.395 24.3672C197.395 25.375 197.242 26.168 196.938 26.7461C196.641 27.3242 196.184 27.7461 195.566 28.0117C194.949 28.2773 194.16 28.4453 193.199 28.5156C192.246 28.5938 191.109 28.6328 189.789 28.6328C188.281 28.6328 187 28.5547 185.945 28.3984C184.898 28.25 184.051 27.9414 183.402 27.4727C182.762 26.9961 182.293 26.2852 181.996 25.3398C181.707 24.3945 181.562 23.1328 181.562 21.5547C181.562 20.0234 181.703 18.7969 181.984 17.875C182.273 16.9531 182.738 16.2578 183.379 15.7891C184.02 15.3203 184.859 15.0078 185.898 14.8516C186.945 14.6953 188.223 14.6172 189.73 14.6172C191.457 14.6172 192.887 14.7383 194.02 14.9805C195.152 15.2227 195.996 15.6836 196.551 16.3633C197.113 17.043 197.395 18.0391 197.395 19.3516V22.2461H183.824C183.832 23.2461 183.902 24.0469 184.035 24.6484C184.168 25.25 184.434 25.7031 184.832 26.0078C185.23 26.3125 185.824 26.5156 186.613 26.6172C187.41 26.7109 188.469 26.7578 189.789 26.7578C190.977 26.7578 191.934 26.7344 192.66 26.6875C193.395 26.6406 193.949 26.5391 194.324 26.3828C194.707 26.2188 194.965 25.9766 195.098 25.6562C195.23 25.3359 195.297 24.9062 195.297 24.3672H197.395ZM189.73 16.4922C188.457 16.4922 187.43 16.5391 186.648 16.6328C185.875 16.7266 185.285 16.9102 184.879 17.1836C184.473 17.4492 184.195 17.8477 184.047 18.3789C183.906 18.9102 183.832 19.6094 183.824 20.4766H195.238V19.3516C195.238 18.7891 195.172 18.3242 195.039 17.957C194.914 17.582 194.664 17.2891 194.289 17.0781C193.914 16.8594 193.359 16.707 192.625 16.6211C191.898 16.5352 190.934 16.4922 189.73 16.4922Z" fill="white"/>
</svg>
